<svg xmlns="http://www.w3.org/2000/svg" version="1.1" xmlns:xlink="http://www.w3.org/1999/xlink" xmlns:svgjs="http://svgjs.dev/svgjs" width="1000" height="1000"><style>
    #light-icon {
      display: inline;
    }
    #dark-icon {
      display: none;
    }

    @media (prefers-color-scheme: dark) {
      #light-icon {
        display: none;
      }
      #dark-icon {
        display: inline;
      }
    }
  </style><g id="light-icon"><svg xmlns="http://www.w3.org/2000/svg" version="1.1" xmlns:xlink="http://www.w3.org/1999/xlink" xmlns:svgjs="http://svgjs.dev/svgjs" width="1000" height="1000"><g><g transform="matrix(1.9157088122605364,0,0,1.9157088122605364,0,0)"><svg xmlns="http://www.w3.org/2000/svg" version="1.1" xmlns:xlink="http://www.w3.org/1999/xlink" xmlns:svgjs="http://svgjs.dev/svgjs" width="522" height="522"><svg width="522" height="522" viewBox="0 0 522 522" xmlns="http://www.w3.org/2000/svg">
    <g id="Group">
        <path id="Path" fill="#7d5941" stroke="none" d="M 229.690002 493.339996 C 227.099976 493.339996 224.289978 493.079987 221.289978 492.550018 C 197.679993 488.389984 160.909973 466.470001 153.109985 430.769989 L 151.97998 425.620026 L 157.070007 424.230011 C 157.539978 424.100006 202.849976 412.410004 236.809998 453.829987 C 236.859985 419.170013 245.919983 379.209991 273.409973 337.799988 C 273.669983 337.409973 273.849976 337.029968 274.099976 336.649963 C 232.200012 332.439941 186.210022 331.679993 167.27002 342.099976 C 136.789978 358.859985 130.390015 407.449982 130.23999 429.360016 C 129.75 503.180023 142.109985 511.860016 163.76001 516.699951 C 180.47998 520.439941 213.619995 522.060059 248.080017 521.420044 C 245.059998 512.430054 242.299988 502.360016 240.27002 491.350006 C 237.359985 492.649994 233.809998 493.339996 229.690002 493.339996 Z"></path>
        <path id="path1" fill="#7d5941" stroke="none" d="M 263.460022 429.930023 C 294.5 433.500031 311.210022 416.810028 317.630005 408.230011 C 311.780029 405.899994 305.530029 404.910004 299.320007 404.910004 C 283.719971 404.910004 268.299988 411.110016 259.840027 417.689972 C 254.27002 422.029999 253 425.339996 253.26001 426.259979 C 253.450012 426.930023 255.719971 429.029999 263.460022 429.920013 Z"></path>
        <path id="path2" fill="#7d5941" stroke="none" d="M 339.130005 346.469971 C 326.159973 343.619995 307.130005 340.449951 286.23999 337.98999 C 285.130005 339.959961 283.97998 341.939941 282.650024 343.939941 C 267.900024 366.159973 258.780029 387.910004 253.590027 408.550018 C 269.5 396.509979 302.780029 386.420013 328.440002 401.160004 L 333.02002 403.790009 L 330.619995 408.490021 C 330.440002 408.850006 313.22998 441.500031 271.789978 441.500031 C 268.72998 441.500031 265.539978 441.319977 262.210022 440.939972 C 256.5 440.290009 252 438.930023 248.710022 436.920013 C 245.590027 470.350006 251.969971 499.470001 259.659973 521.130005 C 287.070007 520.219971 314.26001 517.880005 333.710022 513.97998 C 380.429993 504.629974 383.179993 478.509979 383.969971 471.500031 C 384.76001 464.480011 385.390015 427.670013 382.669983 395.670013 C 381.169983 377.949982 379.919983 355.439941 339.140015 346.469971 Z"></path>
        <path id="path3" fill="#7d5941" stroke="none" d="M 165.47998 433.959991 C 174.609985 461.110016 204.47998 478.329987 223.219971 481.629974 C 231.340027 483.060028 236.26001 481.800018 237.390015 480.009979 C 238.419983 478.379974 237.700012 473.750031 232.25 466.069977 C 208.609985 432.740021 177.890015 432.459991 165.47998 433.959991 Z"></path>
        <path id="path4" fill="#7d5941" stroke="none" d="M 235.619995 205.949951 C 234.669983 205.949951 233.5 206.019958 232.080017 206.189941 C 208.830017 209.109985 198.580017 224.119995 194.630005 232.429993 C 208.369995 233.859985 222.909973 226.579956 232.109985 217.72998 C 238.299988 211.779968 239.590027 207.419983 239.369995 206.459961 C 239.380005 206.469971 238.460022 205.939941 235.640015 205.939941 Z"></path>
        <path id="path5" fill="#7d5941" stroke="none" d="M 257.280029 227.429993 C 254.549988 222.689941 251.780029 217.889954 249.059998 213.009949 C 248.01001 215.559998 246.380005 218.23999 244.159973 220.97998 C 236.119995 230.899963 218.030029 243.72998 198.26001 243.72998 C 194.049988 243.72998 189.77002 243.149963 185.48999 241.839966 L 180.419983 240.279968 L 181.75 235.149963 C 182.119995 233.719971 191.26001 200.139954 230.690002 195.189941 C 234.210022 194.73999 237.140015 194.899963 239.75 195.359985 C 235.52002 186.719971 231.75 177.809998 228.820007 168.579956 C 165.140015 174.709961 155.429993 205.75 155.429993 205.75 C 141.400024 254.469971 143.669983 272.23999 149.52002 296.399963 C 155.369995 320.559998 192.75 325.209961 269.289978 323.25 C 273.469971 323.139954 277.330017 323.079956 281.150024 323.009949 C 293.72998 290.659973 276.679993 261.029968 257.280029 227.409973 Z"></path>
        <path id="path6" fill="#7d5941" stroke="none" d="M 319.340027 267.569946 L 319.369995 267.569946 C 319.880005 267.569946 322.299988 266.549988 325.97998 261.189941 C 341.119995 239.099976 335.849976 220.079956 331.869995 211.369995 C 317.190002 224.319946 314.02002 246.389954 315.719971 258.359985 C 316.719971 265.369995 318.950012 267.449951 319.340027 267.559998 Z"></path>
        <path id="path7" fill="#7d5941" stroke="none" d="M 296.609985 298.969971 C 301.669983 293.559998 307.669983 285.829956 312.190002 276.039978 C 308.73999 273.269958 306.23999 268.399963 305.030029 261.72998 C 301.859985 244.319946 307.700012 213.179993 330.619995 198.469971 L 335.049988 195.629944 L 338.119995 199.909973 C 339.02002 201.169983 359.97998 231.209961 335.119995 267.469971 C 331.309998 273.019958 327.409973 276.519958 323.47998 277.939941 C 314.75 298.719971 300.030029 311.669983 294.940002 315.699951 C 294.419983 318.079956 293.75 320.47998 292.969971 322.899963 C 355.210022 322.459961 365.159973 326.969971 378.080017 310.899963 C 392.5 292.969971 399.809998 207.779968 365.98999 181.379944 C 352.859985 171.129944 302.5 163.559998 240.190002 167.679993 C 246.539978 186.559998 256.76001 204.349976 266.880005 221.899963 C 281.799988 247.769958 296.109985 272.709961 296.609985 298.97998 Z"></path>
        <path id="path8" fill="#7d5941" stroke="none" d="M 248.22998 119.140015 C 275.76001 122.559998 290.809998 108.409973 296.880005 100.669983 C 291.48999 98.579956 285.77002 97.700012 280.099976 97.700012 C 266.02002 97.700012 252.280029 103.130005 244.72998 108.959961 C 239.590027 112.929993 239.01001 115.599976 239.109985 115.959961 C 239.219971 116.380005 241.210022 118.26001 248.22998 119.130005 Z"></path>
        <path id="path9" fill="#7d5941" stroke="none" d="M 238.960022 99.469971 C 253.75 88.669983 284.059998 79.969971 307.799988 93.619995 L 312.359985 96.25 L 309.969971 100.940002 C 309.799988 101.26001 294.330017 130.73999 256.469971 130.73999 C 253.419983 130.73999 250.219971 130.549988 246.869995 130.140015 C 241.349976 129.459961 237.059998 128.079956 233.940002 126.059998 C 233.400024 136.450012 234.549988 146.409973 236.849976 156.049988 C 245.450012 156.649963 254.830017 156.869995 265.140015 156.579956 C 363.400024 153.849976 359.409973 143.719971 371.880005 118 C 384.349976 92.279968 377.72998 27.579956 354.340027 9.649963 C 344.969971 2.459961 319.549988 0.169983 290.73999 0.570007 C 285.679993 13.419983 275.200012 36.700012 256.72998 64.029968 C 248.340027 76.440002 242.599976 88.219971 238.940002 99.469971 Z"></path>
        <path id="path10" fill="#7d5941" stroke="none" d="M 233.369995 83.109985 C 232.48999 83.26001 231.570007 83.339966 230.599976 83.339966 C 227.76001 83.339966 224.549988 82.679993 221.049988 81.369995 C 207.659973 76.320007 186.169983 59.25 185.52002 34.909973 L 185.380005 29.630005 L 190.650024 29.22998 C 192.01001 29.140015 223.969971 27.140015 239.820007 61.119995 C 240.75 63.119995 241.450012 64.98999 241.919983 66.75 C 243.679993 63.799988 245.52002 60.829956 247.549988 57.820007 C 263.380005 34.380005 273.210022 13.799988 278.609985 0.880005 C 238.590027 2.380005 195.530029 8.279968 180.909973 13.149963 C 154.02002 22.109985 148.880005 33.820007 146.98999 47.839966 C 143.77002 71.619995 145.840027 82.529968 147.789978 100.450012 C 149.440002 115.609985 161.969971 147.219971 225.25 154.959961 C 220.669983 133.079956 221.659973 109.380005 233.380005 83.099976 Z"></path>
        <path id="path11" fill="#7d5941" stroke="none" d="M 197.369995 40.630005 C 200.22998 53.099976 210.440002 63.070007 219.26001 68.23999 C 226.25 72.329956 230.75 72.529968 231.75 72.130005 C 231.609985 72.019958 231.799988 70.179993 229.77002 65.829956 C 220.830017 46.669983 205.700012 41.820007 197.369995 40.640015 Z"></path>
    </g>
</svg></svg></g></g></svg></g><g id="dark-icon"><svg xmlns="http://www.w3.org/2000/svg" version="1.1" xmlns:xlink="http://www.w3.org/1999/xlink" xmlns:svgjs="http://svgjs.dev/svgjs" width="1000" height="1000"><g clip-path="url(#SvgjsClipPath1058)"><rect width="1000" height="1000" fill="#eae4dd"></rect><g transform="matrix(1.7241379310344827,0,0,1.7241379310344827,50,50)"><svg xmlns="http://www.w3.org/2000/svg" version="1.1" xmlns:xlink="http://www.w3.org/1999/xlink" xmlns:svgjs="http://svgjs.dev/svgjs" width="522" height="522"><svg width="522" height="522" viewBox="0 0 522 522" xmlns="http://www.w3.org/2000/svg">
    <g id="Group">
        <path id="Path" fill="#7d5941" stroke="none" d="M 229.690002 493.339996 C 227.099976 493.339996 224.289978 493.079987 221.289978 492.550018 C 197.679993 488.389984 160.909973 466.470001 153.109985 430.769989 L 151.97998 425.620026 L 157.070007 424.230011 C 157.539978 424.100006 202.849976 412.410004 236.809998 453.829987 C 236.859985 419.170013 245.919983 379.209991 273.409973 337.799988 C 273.669983 337.409973 273.849976 337.029968 274.099976 336.649963 C 232.200012 332.439941 186.210022 331.679993 167.27002 342.099976 C 136.789978 358.859985 130.390015 407.449982 130.23999 429.360016 C 129.75 503.180023 142.109985 511.860016 163.76001 516.699951 C 180.47998 520.439941 213.619995 522.060059 248.080017 521.420044 C 245.059998 512.430054 242.299988 502.360016 240.27002 491.350006 C 237.359985 492.649994 233.809998 493.339996 229.690002 493.339996 Z"></path>
        <path id="path1" fill="#7d5941" stroke="none" d="M 263.460022 429.930023 C 294.5 433.500031 311.210022 416.810028 317.630005 408.230011 C 311.780029 405.899994 305.530029 404.910004 299.320007 404.910004 C 283.719971 404.910004 268.299988 411.110016 259.840027 417.689972 C 254.27002 422.029999 253 425.339996 253.26001 426.259979 C 253.450012 426.930023 255.719971 429.029999 263.460022 429.920013 Z"></path>
        <path id="path2" fill="#7d5941" stroke="none" d="M 339.130005 346.469971 C 326.159973 343.619995 307.130005 340.449951 286.23999 337.98999 C 285.130005 339.959961 283.97998 341.939941 282.650024 343.939941 C 267.900024 366.159973 258.780029 387.910004 253.590027 408.550018 C 269.5 396.509979 302.780029 386.420013 328.440002 401.160004 L 333.02002 403.790009 L 330.619995 408.490021 C 330.440002 408.850006 313.22998 441.500031 271.789978 441.500031 C 268.72998 441.500031 265.539978 441.319977 262.210022 440.939972 C 256.5 440.290009 252 438.930023 248.710022 436.920013 C 245.590027 470.350006 251.969971 499.470001 259.659973 521.130005 C 287.070007 520.219971 314.26001 517.880005 333.710022 513.97998 C 380.429993 504.629974 383.179993 478.509979 383.969971 471.500031 C 384.76001 464.480011 385.390015 427.670013 382.669983 395.670013 C 381.169983 377.949982 379.919983 355.439941 339.140015 346.469971 Z"></path>
        <path id="path3" fill="#7d5941" stroke="none" d="M 165.47998 433.959991 C 174.609985 461.110016 204.47998 478.329987 223.219971 481.629974 C 231.340027 483.060028 236.26001 481.800018 237.390015 480.009979 C 238.419983 478.379974 237.700012 473.750031 232.25 466.069977 C 208.609985 432.740021 177.890015 432.459991 165.47998 433.959991 Z"></path>
        <path id="path4" fill="#7d5941" stroke="none" d="M 235.619995 205.949951 C 234.669983 205.949951 233.5 206.019958 232.080017 206.189941 C 208.830017 209.109985 198.580017 224.119995 194.630005 232.429993 C 208.369995 233.859985 222.909973 226.579956 232.109985 217.72998 C 238.299988 211.779968 239.590027 207.419983 239.369995 206.459961 C 239.380005 206.469971 238.460022 205.939941 235.640015 205.939941 Z"></path>
        <path id="path5" fill="#7d5941" stroke="none" d="M 257.280029 227.429993 C 254.549988 222.689941 251.780029 217.889954 249.059998 213.009949 C 248.01001 215.559998 246.380005 218.23999 244.159973 220.97998 C 236.119995 230.899963 218.030029 243.72998 198.26001 243.72998 C 194.049988 243.72998 189.77002 243.149963 185.48999 241.839966 L 180.419983 240.279968 L 181.75 235.149963 C 182.119995 233.719971 191.26001 200.139954 230.690002 195.189941 C 234.210022 194.73999 237.140015 194.899963 239.75 195.359985 C 235.52002 186.719971 231.75 177.809998 228.820007 168.579956 C 165.140015 174.709961 155.429993 205.75 155.429993 205.75 C 141.400024 254.469971 143.669983 272.23999 149.52002 296.399963 C 155.369995 320.559998 192.75 325.209961 269.289978 323.25 C 273.469971 323.139954 277.330017 323.079956 281.150024 323.009949 C 293.72998 290.659973 276.679993 261.029968 257.280029 227.409973 Z"></path>
        <path id="path6" fill="#7d5941" stroke="none" d="M 319.340027 267.569946 L 319.369995 267.569946 C 319.880005 267.569946 322.299988 266.549988 325.97998 261.189941 C 341.119995 239.099976 335.849976 220.079956 331.869995 211.369995 C 317.190002 224.319946 314.02002 246.389954 315.719971 258.359985 C 316.719971 265.369995 318.950012 267.449951 319.340027 267.559998 Z"></path>
        <path id="path7" fill="#7d5941" stroke="none" d="M 296.609985 298.969971 C 301.669983 293.559998 307.669983 285.829956 312.190002 276.039978 C 308.73999 273.269958 306.23999 268.399963 305.030029 261.72998 C 301.859985 244.319946 307.700012 213.179993 330.619995 198.469971 L 335.049988 195.629944 L 338.119995 199.909973 C 339.02002 201.169983 359.97998 231.209961 335.119995 267.469971 C 331.309998 273.019958 327.409973 276.519958 323.47998 277.939941 C 314.75 298.719971 300.030029 311.669983 294.940002 315.699951 C 294.419983 318.079956 293.75 320.47998 292.969971 322.899963 C 355.210022 322.459961 365.159973 326.969971 378.080017 310.899963 C 392.5 292.969971 399.809998 207.779968 365.98999 181.379944 C 352.859985 171.129944 302.5 163.559998 240.190002 167.679993 C 246.539978 186.559998 256.76001 204.349976 266.880005 221.899963 C 281.799988 247.769958 296.109985 272.709961 296.609985 298.97998 Z"></path>
        <path id="path8" fill="#7d5941" stroke="none" d="M 248.22998 119.140015 C 275.76001 122.559998 290.809998 108.409973 296.880005 100.669983 C 291.48999 98.579956 285.77002 97.700012 280.099976 97.700012 C 266.02002 97.700012 252.280029 103.130005 244.72998 108.959961 C 239.590027 112.929993 239.01001 115.599976 239.109985 115.959961 C 239.219971 116.380005 241.210022 118.26001 248.22998 119.130005 Z"></path>
        <path id="path9" fill="#7d5941" stroke="none" d="M 238.960022 99.469971 C 253.75 88.669983 284.059998 79.969971 307.799988 93.619995 L 312.359985 96.25 L 309.969971 100.940002 C 309.799988 101.26001 294.330017 130.73999 256.469971 130.73999 C 253.419983 130.73999 250.219971 130.549988 246.869995 130.140015 C 241.349976 129.459961 237.059998 128.079956 233.940002 126.059998 C 233.400024 136.450012 234.549988 146.409973 236.849976 156.049988 C 245.450012 156.649963 254.830017 156.869995 265.140015 156.579956 C 363.400024 153.849976 359.409973 143.719971 371.880005 118 C 384.349976 92.279968 377.72998 27.579956 354.340027 9.649963 C 344.969971 2.459961 319.549988 0.169983 290.73999 0.570007 C 285.679993 13.419983 275.200012 36.700012 256.72998 64.029968 C 248.340027 76.440002 242.599976 88.219971 238.940002 99.469971 Z"></path>
        <path id="path10" fill="#7d5941" stroke="none" d="M 233.369995 83.109985 C 232.48999 83.26001 231.570007 83.339966 230.599976 83.339966 C 227.76001 83.339966 224.549988 82.679993 221.049988 81.369995 C 207.659973 76.320007 186.169983 59.25 185.52002 34.909973 L 185.380005 29.630005 L 190.650024 29.22998 C 192.01001 29.140015 223.969971 27.140015 239.820007 61.119995 C 240.75 63.119995 241.450012 64.98999 241.919983 66.75 C 243.679993 63.799988 245.52002 60.829956 247.549988 57.820007 C 263.380005 34.380005 273.210022 13.799988 278.609985 0.880005 C 238.590027 2.380005 195.530029 8.279968 180.909973 13.149963 C 154.02002 22.109985 148.880005 33.820007 146.98999 47.839966 C 143.77002 71.619995 145.840027 82.529968 147.789978 100.450012 C 149.440002 115.609985 161.969971 147.219971 225.25 154.959961 C 220.669983 133.079956 221.659973 109.380005 233.380005 83.099976 Z"></path>
        <path id="path11" fill="#7d5941" stroke="none" d="M 197.369995 40.630005 C 200.22998 53.099976 210.440002 63.070007 219.26001 68.23999 C 226.25 72.329956 230.75 72.529968 231.75 72.130005 C 231.609985 72.019958 231.799988 70.179993 229.77002 65.829956 C 220.830017 46.669983 205.700012 41.820007 197.369995 40.640015 Z"></path>
    </g>
</svg></svg></g></g><defs><clipPath id="SvgjsClipPath1058"><rect width="1000" height="1000" x="0" y="0" rx="100" ry="100"></rect></clipPath></defs></svg></g></svg>